<?xml version="1.0" standalone="no"?>
<!DOCTYPE svg PUBLIC "-//W3C//DTD SVG 20010904//EN"
 "http://www.w3.org/TR/2001/REC-SVG-20010904/DTD/svg10.dtd">
<svg version="1.0" xmlns="http://www.w3.org/2000/svg"
 width="2134.000000pt" height="2134.000000pt" viewBox="0 0 2134.000000 2134.000000"
 preserveAspectRatio="xMidYMid meet">
<g transform="translate(0.000000,2134.000000) scale(0.100000,-0.100000)"
fill="#000000" stroke="none">
<path d="M10375 21294 c-383 -15 -796 -48 -1105 -90 -1617 -218 -3137 -789
-4480 -1685 -596 -398 -1069 -782 -1574 -1279 -1010 -995 -1783 -2127 -2336
-3420 -902 -2111 -1092 -4511 -534 -6745 77 -309 92 -357 109 -348 7 5 323
237 702 517 l689 508 -47 142 c-99 295 -180 753 -210 1181 -14 205 -6 636 16
845 52 505 150 914 322 1350 569 1444 1801 2458 3505 2885 436 109 750 159
1378 217 91 8 1062 12 3560 15 l3435 4 -31 -23 c-655 -492 -10454 -7954
-10454 -7962 0 -15 126 -133 240 -225 525 -421 1296 -675 2249 -742 216 -15
776 -6 971 15 341 38 656 98 956 181 930 258 1777 727 2809 1552 237 189 454
371 1744 1458 l973 820 -24 20 c-13 11 -637 470 -1385 1020 l-1361 1000 1524
3 1525 2 617 -406 c339 -224 626 -413 638 -420 20 -14 164 95 2450 1845 l2429
1860 268 1 c147 0 267 3 267 7 0 14 -187 364 -294 550 -476 830 -1021 1539
-1710 2229 -640 639 -1295 1152 -2051 1605 -1487 892 -3110 1392 -4865 1499
-176 11 -766 20 -915 14z"/>
<path d="M18628 12172 c-1208 -911 -2196 -1661 -2194 -1667 3 -11 4382 -3065
4395 -3065 9 0 101 309 165 560 473 1838 441 3806 -91 5633 -32 108 -62 197
-68 196 -5 0 -999 -746 -2207 -1657z"/>
<path d="M6490 13643 c-1001 -44 -1831 -229 -2495 -556 -381 -188 -663 -385
-930 -652 -489 -487 -773 -1089 -861 -1825 -42 -343 -11 -972 66 -1344 27
-132 31 -146 41 -146 12 0 3693 2668 4919 3565 676 495 1042 738 1365 907
l110 58 -1075 -2 c-591 -1 -1104 -3 -1140 -5z"/>
<path d="M13733 8493 c-1293 -1022 -1499 -1177 -1970 -1486 -1399 -919 -2801
-1483 -4098 -1651 -494 -64 -1027 -72 -1475 -20 -1171 134 -2378 701 -3131
1471 -69 70 -147 154 -175 186 l-50 58 -809 -611 c-446 -336 -814 -617 -820
-625 -6 -10 5 -41 40 -107 417 -798 960 -1570 1585 -2253 166 -181 587 -598
760 -751 1552 -1376 3411 -2258 5430 -2574 592 -92 1019 -124 1665 -124 578 0
938 24 1455 95 2268 313 4362 1343 5994 2949 729 718 1311 1472 1807 2343 44
76 79 140 79 143 0 2 -18 4 -40 4 -37 0 -199 117 -2522 1827 -1366 1005 -2524
1857 -2575 1894 l-91 68 -1059 -836z"/>
</g>
</svg>
