<svg xmlns="http://www.w3.org/2000/svg" viewBox="0 0 144 18"><path d="M8.4 11.2c-.1-.2-.2-1.2-.2-1.8 0-3.2 2.3-5.9 8.2-5.9h3.1s-.7.3-2.3 1.4c-1.5 1.1-8.8 6.3-8.8 6.3zm24.5-2.4L44.2.4h-5.6l-8.5 6.4-2.2-1.4h-5.3l4.8 3.5-3.7 3.1c-1.9 1.6-4.6 3.8-8.5 3.8-1.6 0-3.8-.3-5-1.7L28.4.5h-11C10.6.5 7.1 4.3 7.1 9c0 1 .2 2.2.5 2.8L0 17.3h5.8l3.5-2.6c1.3 1.6 4 3 6.8 3 4.7 0 9-3 10.5-4.2l3.4-2.7 9 6.5h6.3L32.9 8.8z" fill="#ffcf01"/><path d="M111.1 7.4c-.3-1.8-1.8-2.6-3.2-2.6-1.4 0-2.9.9-3.2 2.6h6.4zm3.3 4.9c-.4 1-1.7 3.9-6.4 3.9-2.2 0-3.8-.6-5.1-1.9-1.5-1.4-2.1-3.1-2.1-5.1 0-2.6 1.1-4.2 2-5.2 1.6-1.5 3.4-1.9 5.1-1.9 2.7 0 4.3 1.1 5.2 2.2 1.4 1.7 1.6 3.7 1.6 5.2v.3h-10c0 .8.2 1.6.7 2.2.4.5 1.2 1.2 2.7 1.2 1.4 0 2.5-.7 3.1-1.7l3.2.8zM59.3 7.4c-.3-1.8-1.8-2.6-3.2-2.6-1.4 0-2.9.9-3.2 2.6h6.4zm3.3 4.9c-.4 1-1.7 3.9-6.4 3.9-2.2 0-3.8-.6-5.1-1.9-1.5-1.4-2.1-3.1-2.1-5.1C49 6.6 50.1 5 51 4c1.6-1.5 3.4-1.9 5.1-1.9 2.7 0 4.3 1.1 5.2 2.2C62.7 6 62.9 8 62.9 9.5v.3h-10c0 .8.2 1.6.7 2.2.4.5 1.2 1.2 2.7 1.2 1.4 0 2.5-.7 3.1-1.7l3.2.8zm20.8-9.9h4.1v2.2c.8-.9 2.1-2.4 4.5-2.4 3 0 4.7 1.6 4.7 5.8v7.9h-3.9V8.2c0-1.6-.8-2.6-2-2.6-1.4 0-2.6.8-3.3 1.7v8.4h-4.1V2.4zm49 12l1.1-2.9c1.5 1.1 3.7 1.7 5 1.7 1.2 0 1.7-.4 1.7-1v-.1c0-.8-1.4-1.1-2.9-1.6-2-.6-4.2-1.4-4.2-4.1 0-2.7 2.3-4.3 5.1-4.3 1.8 0 3.4.4 4.9 1.3l-.8 2.9c-1.4-.8-3.1-1.3-4.1-1.3-1 0-1.5.4-1.5.9V6c0 .8 1.3 1.1 2.8 1.6 2 .6 4.2 1.5 4.2 4v.1c0 3-2.3 4.4-5.4 4.4-1.8 0-4-.3-5.9-1.7zm-14.2 0l1.1-2.9c1.5 1.1 3.7 1.7 5 1.7 1.1 0 1.7-.4 1.7-1v-.1c0-.8-1.4-1.1-2.9-1.6-2-.6-4.2-1.4-4.2-4.1 0-2.7 2.3-4.3 5.1-4.3 1.8 0 3.4.4 4.9 1.3l-.8 2.9C126.7 5.5 125 5 124 5c-1 0-1.5.4-1.5.9V6c0 .8 1.3 1.1 2.8 1.6 2 .6 4.2 1.5 4.2 4v.1c0 3-2.3 4.4-5.4 4.4-1.8 0-4-.3-5.9-1.7zm-46-8.1L75 2.4h4.4L74.3 9l5.3 6.9H75l-3-4.2-3 4.2h-4.4L70 9l-5.1-6.6h4.6l2.7 3.9z" fill="#fff"/></svg>